<?xml version="1.0" encoding="UTF-8"?>
<svg width="330px" height="133px" viewBox="0 0 330 133" version="1.1" xmlns="http://www.w3.org/2000/svg" xmlns:xlink="http://www.w3.org/1999/xlink">
    <!-- Generator: Sketch 43.2 (39069) - http://www.bohemiancoding.com/sketch -->
    <title>WandB-RGB-Brandmark-gray text-A</title>
    <desc>Created with Sketch.</desc>
    <defs></defs>
    <g id="Page-1" stroke="none" stroke-width="1" fill="none" fill-rule="evenodd">
        <g id="WandB-RGB-Brandmark-gray-text-A" fill-rule="nonzero">
            <path d="M228.19,47.48 C224.51,47.48 223.07,48.05 222.06,51.48 L210.74,90 L201.29,90 L193.72,65.2 L193.58,65.2 L185.21,90 L175.62,90 L163.8,49.64 C163.36,48.2 162.5,47.48 158.6,47.48 L158.6,42.14 L179.44,42.14 L179.44,47.48 L176.44,47.48 C174.85,47.48 174.2,48.41 174.2,49.35 C174.320608,50.2378917 174.538588,51.1098093 174.85,51.95 L181.85,77.95 L182,77.95 L190.36,53.57 L189.14,50.19 C188.763485,48.5290977 187.228354,47.393696 185.53,47.52 L183.15,47.52 L183.15,42.14 L204.71,42.14 L204.71,47.48 L201.54,47.48 C199.95,47.48 198.87,47.98 198.87,48.92 C198.967783,49.7563754 199.162422,50.5785557 199.45,51.37 L207.17,77.37 L207.31,77.37 L214.52,51.85 C214.781339,51.0825804 214.926279,50.2803507 214.95,49.47 C214.95,48.17 214.09,47.47 211.56,47.47 L208.39,47.47 L208.39,42.14 L228.22,42.14 L228.19,47.48 Z" id="Shape" fill="#5F6369"></path>
            <path d="M256.32,60.24 L279.4,60.24 L279.4,65.58 L277.81,65.58 C273.63,65.58 271.97,66.37 270.67,68.25 L261.37,81.37 C262.599932,83.1325585 264.631349,84.1614089 266.78,84.11 C272.78,84.11 273.99,78.34 273.99,73.65 L279.47,73.65 C279.47,83.65 277.23,91.39 265.47,91.39 C261.382849,91.4451676 257.395866,90.1243915 254.15,87.64 C250.057067,90.0444756 245.406664,91.3372119 240.66,91.39 C228.98,91.39 224.08,84.62 224.08,77.26 C224.08,69.62 226.38,66.88 236.33,61.54 C235.04,59.88 234.24,56.06 234.24,53.32 C234.24,45.67 239.24,40.7 247.08,40.7 C252.7,40.7 257.32,44.59 257.32,50.36 C257.32,56.13 252.78,60.36 248.02,63.13 C249.46,66.59 254.72,74.23 257.46,76.68 C259.12,75.02 262.87,70.27 262.87,68.17 C262.87,66.44 262.01,65.58 259.19,65.58 L256.31,65.58 L256.32,60.24 Z M242.55,84.62 C245.006922,84.7327062 247.448,84.1725722 249.61,83 C245.663243,78.0908706 242.140582,72.8553867 239.08,67.35 C236.34,69.15 234.18,71.35 234.18,75.28 C234.18,80.43 237.64,84.62 242.55,84.62 Z M250.84,50.62 C250.84,47.88 249.18,46.29 246.44,46.29 C243.7,46.29 241.97,48.29 241.97,51.05 C241.97,53.43 243.41,55.81 244.64,57.76 C247.59,56.64 250.84,54.11 250.84,50.65 L250.84,50.62 Z" id="Shape" fill="#5F6369"></path>
            <path d="M282,84.62 L287.12,84.62 C289.36,84.62 290.12,83.89 290.12,82.02 L290.12,50.07 C290.12,48.2 289.4,47.48 287.12,47.48 L282,47.48 L282,42.14 L308.76,42.14 C322.89,42.14 327.43,46.54 327.43,53.97 C327.43,60.31 323.18,63.56 317.34,64.5 L317.34,64.64 C323.34,65.94 329.09,68.46 329.09,76.64 C329.09,84.43 324.91,89.91 312.94,89.91 L282,89.91 L282,84.62 Z M300.18,62.48 L307.1,62.48 C312.8,62.48 317.34,61.48 317.34,55.12 C317.34,48.49 312.8,47.48 307.1,47.48 L300.18,47.48 L300.18,62.48 Z M300.18,84.62 L308.25,84.62 C314.02,84.62 319,83.53 319,76.25 C319,68.97 314,67.81 308.25,67.81 L300.18,67.81 L300.18,84.62 Z" id="Shape" fill="#5F6369"></path>
            <rect id="Rectangle-path" fill="#F9C20A" x="0" y="0" width="132.88" height="132.88"></rect>
            <path d="M23.35,25 C25.4217519,24.9959536 27.2917566,26.2408328 28.0873871,28.1537218 C28.8830176,30.0666108 28.4474439,32.2704523 26.983924,33.7368362 C25.5204041,35.2032202 23.3174184,35.6431016 21.4029775,34.8512124 C19.4885367,34.0593232 18.240004,32.1917559 18.24,30.12 C18.2346726,28.7621992 18.7710142,27.458328 19.7301927,26.4972724 C20.6893712,25.5362168 21.9921914,24.9973272 23.35,25 L23.35,25 Z" id="Shape" fill="#5F6369"></path>
            <path d="M23.35,37.11 C25.4217519,37.1059536 27.2917566,38.3508328 28.0873871,40.2637218 C28.8830176,42.1766108 28.4474439,44.3804523 26.983924,45.8468362 C25.5204041,47.3132202 23.3174184,47.7531016 21.4029775,46.9612124 C19.4885367,46.1693232 18.240004,44.3017559 18.24,42.23 C18.2346726,40.8721992 18.7710142,39.568328 19.7301927,38.6072724 C20.6893712,37.6462168 21.9921914,37.1073272 23.35,37.11 L23.35,37.11 Z" id="Shape" fill="#5F6369"></path>
            <path d="M23.35,49.24 C25.4217519,49.2359536 27.2917566,50.4808328 28.0873871,52.3937218 C28.8830176,54.3066108 28.4474439,56.5104523 26.983924,57.9768362 C25.5204041,59.4432202 23.3174184,59.8831016 21.4029775,59.0912124 C19.4885367,58.2993232 18.240004,56.4317559 18.24,54.36 C18.2346726,53.0021992 18.7710142,51.698328 19.7301927,50.7372724 C20.6893712,49.7762168 21.9921914,49.2373272 23.35,49.24 L23.35,49.24 Z" id="Shape" fill="#5F6369"></path>
            <path d="M23.35,85.63 C26.1708721,85.6300054 28.4581526,87.9158016 28.4599891,90.7366732 C28.4618256,93.5575447 26.1775234,95.8463173 23.3566536,95.8499957 C20.5357839,95.8536741 18.2455203,93.5708667 18.24,90.75 C18.2319817,89.3913843 18.7674578,88.0859486 19.7272213,87.1243068 C20.6869849,86.162665 21.9913712,85.6246379 23.35,85.63 L23.35,85.63 Z" id="Shape" fill="#5F6369"></path>
            <path d="M23.35,73.58 C26.1708721,73.5800054 28.4581526,75.8658016 28.4599891,78.6866732 C28.4618256,81.5075447 26.1775234,83.7963173 23.3566536,83.7999957 C20.5357839,83.8036741 18.2455203,81.5208667 18.24,78.7 C18.2319817,77.3413843 18.7674578,76.0359486 19.7272213,75.0743068 C20.6869849,74.112665 21.9913712,73.5746379 23.35,73.58 L23.35,73.58 Z" id="Shape" fill="#5F6369"></path>
            <path d="M23.35,97.76 C26.1708721,97.7600054 28.4581526,100.045802 28.4599891,102.866673 C28.4618256,105.687545 26.1775234,107.976317 23.3566536,107.979996 C20.5357839,107.983674 18.2455203,105.700867 18.24,102.88 C18.2319817,101.521384 18.7674578,100.215949 19.7272213,99.2543068 C20.6869849,98.292665 21.9913712,97.7546379 23.35,97.76 L23.35,97.76 Z" id="Shape" fill="#5F6369"></path>
            <path d="M44.89,37.17 C47.709564,37.1755232 49.9918302,39.463758 49.9899891,42.2833268 C49.9881481,45.1028956 47.7028956,47.3881481 44.8833268,47.3899891 C42.063758,47.3918302 39.7755232,45.109564 39.77,42.29 C39.7646579,40.9304609 40.3023693,39.6250628 41.263716,38.663716 C42.2250628,37.7023693 43.5304609,37.1646579 44.89,37.17 L44.89,37.17 Z" id="Shape" fill="#5F6369"></path>
            <path d="M44.89,49.24 C47.7176979,49.24 50.01,51.5323021 50.01,54.36 C50.01,57.1876979 47.7176979,59.48 44.89,59.48 C42.0623021,59.48 39.77,57.1876979 39.77,54.36 C39.7646579,53.0004609 40.3023693,51.6950628 41.263716,50.733716 C42.2250628,49.7723693 43.5304609,49.2346579 44.89,49.24 L44.89,49.24 Z" id="Shape" fill="#5F6369"></path>
            <path d="M44.89,109.89 C47.7108667,109.89552 49.9936741,112.185784 49.9899957,115.006654 C49.9863173,117.827523 47.6975447,120.111826 44.8766732,120.109989 C42.0558016,120.108153 39.7700054,117.820872 39.77,115 C39.7673272,113.642191 40.3062168,112.339371 41.2672724,111.380193 C42.228328,110.421014 43.5321992,109.884673 44.89,109.89 L44.89,109.89 Z" id="Shape" fill="#5F6369"></path>
            <path d="M66.42,25 C69.239564,25.0055232 71.5218302,27.293758 71.5199891,30.1133268 C71.5181481,32.9328956 69.2328956,35.2181481 66.4133268,35.2199891 C63.593758,35.2218302 61.3055232,32.939564 61.3,30.12 C61.2919583,28.7596422 61.8288025,27.4526726 62.7907375,26.4907375 C63.7526726,25.5288025 65.0596422,24.9919583 66.42,25 L66.42,25 Z" id="Shape" fill="#5F6369"></path>
            <path d="M66.42,37.17 C69.239564,37.1755232 71.5218302,39.463758 71.5199891,42.2833268 C71.5181481,45.1028956 69.2328956,47.3881481 66.4133268,47.3899891 C63.593758,47.3918302 61.3055232,45.109564 61.3,42.29 C61.2946579,40.9304609 61.8323693,39.6250628 62.793716,38.663716 C63.7550628,37.7023693 65.0604609,37.1646579 66.42,37.17 L66.42,37.17 Z" id="Shape" fill="#5F6369"></path>
            <path d="M66.42,61.43 C69.2476979,61.43 71.54,63.7223021 71.54,66.55 C71.54,69.3776979 69.2476979,71.67 66.42,71.67 C63.5923021,71.67 61.3,69.3776979 61.3,66.55 C61.2946579,65.1904609 61.8323693,63.8850628 62.793716,62.923716 C63.7550628,61.9623693 65.0604609,61.4246579 66.42,61.43 L66.42,61.43 Z" id="Shape" fill="#5F6369"></path>
            <path d="M66.44,73.58 C69.259564,73.5855232 71.5418302,75.873758 71.5399891,78.6933268 C71.5381481,81.5128956 69.2528956,83.7981481 66.4333268,83.7999891 C63.613758,83.8018302 61.3255232,81.519564 61.32,78.7 C61.3119583,77.3396422 61.8488025,76.0326726 62.8107375,75.0707375 C63.7726726,74.1088025 65.0796422,73.5719583 66.44,73.58 L66.44,73.58 Z" id="Shape" fill="#5F6369"></path>
            <path d="M66.42,85.71 C69.239564,85.7155232 71.5218302,88.003758 71.5199891,90.8233268 C71.5181481,93.6428956 69.2328956,95.9281481 66.4133268,95.9299891 C63.593758,95.9318302 61.3055232,93.649564 61.3,90.83 C61.2919583,89.4696422 61.8288025,88.1626726 62.7907375,87.2007375 C63.7526726,86.2388025 65.0596422,85.7019583 66.42,85.71 Z" id="Shape" fill="#5F6369"></path>
            <path d="M88,37.17 C90.819564,37.1755232 93.1018302,39.463758 93.0999891,42.2833268 C93.0981481,45.1028956 90.8128956,47.3881481 87.9933268,47.3899891 C85.173758,47.3918302 82.8855232,45.109564 82.88,42.29 C82.8746579,40.9304609 83.4123693,39.6250628 84.373716,38.663716 C85.3350628,37.7023693 86.6404609,37.1646579 88,37.17 L88,37.17 Z" id="Shape" fill="#5F6369"></path>
            <path d="M88,49.3 C90.0708467,49.3 91.9377845,50.547448 92.7302632,52.4606608 C93.5227419,54.3738737 93.0846965,56.576077 91.6203867,58.0403867 C90.156077,59.5046965 87.9538737,59.9427419 86.0406608,59.1502632 C84.127448,58.3577845 82.88,56.4908467 82.88,54.42 C82.8746579,53.0604609 83.4123693,51.7550628 84.373716,50.793716 C85.3350628,49.8323693 86.6404609,49.2946579 88,49.3 L88,49.3 Z" id="Shape" fill="#5F6369"></path>
            <path d="M88,85.69 C90.819564,85.6955232 93.1018302,87.983758 93.0999891,90.8033268 C93.0981481,93.6228956 90.8128956,95.9081481 87.9933268,95.9099891 C85.173758,95.9118302 82.8855232,93.629564 82.88,90.81 C82.8719583,89.4496422 83.4088025,88.1426726 84.3707375,87.1807375 C85.3326726,86.2188025 86.6396422,85.6819583 88,85.69 L88,85.69 Z" id="Shape" fill="#5F6369"></path>
            <path d="M109.51,25 C112.329564,25.0055232 114.61183,27.293758 114.609989,30.1133268 C114.608148,32.9328956 112.322896,35.2181481 109.503327,35.2199891 C106.683758,35.2218302 104.395523,32.939564 104.39,30.12 C104.381958,28.7596422 104.918803,27.4526726 105.880738,26.4907375 C106.842673,25.5288025 108.149642,24.9919583 109.51,25 L109.51,25 Z" id="Shape" fill="#5F6369"></path>
            <path d="M109.53,37.17 C112.349564,37.1755232 114.63183,39.463758 114.629989,42.2833268 C114.628148,45.1028956 112.342896,47.3881481 109.523327,47.3899891 C106.703758,47.3918302 104.415523,45.109564 104.41,42.29 C104.404658,40.9304609 104.942369,39.6250628 105.903716,38.663716 C106.865063,37.7023693 108.170461,37.1646579 109.53,37.17 L109.53,37.17 Z" id="Shape" fill="#5F6369"></path>
            <path d="M109.51,85.71 C112.329564,85.7155232 114.61183,88.003758 114.609989,90.8233268 C114.608148,93.6428956 112.322896,95.9281481 109.503327,95.9299891 C106.683758,95.9318302 104.395523,93.649564 104.39,90.83 C104.381958,89.4696422 104.918803,88.1626726 105.880738,87.2007375 C106.842673,86.2388025 108.149642,85.7019583 109.51,85.71 Z" id="Shape" fill="#5F6369"></path>
            <path d="M26.44,18 C26.44,16.7866133 25.7090735,15.6927044 24.5880503,15.2283614 C23.4670271,14.7640184 22.1766736,15.0206857 21.3186797,15.8786797 C20.4606857,16.7366736 20.2040184,18.0270271 20.6683614,19.1480503 C21.1327044,20.2690735 22.2266133,21 23.44,21 C25.0968542,21 26.44,19.6568542 26.44,18 L26.44,18 Z" id="Shape" fill="#5F6369"></path>
            <path d="M26.38,66.43 C26.38,64.7731458 25.0368542,63.43 23.38,63.43 C21.7231458,63.43 20.38,64.7731458 20.38,66.43 C20.38,68.0868542 21.7231458,69.43 23.38,69.43 C25.0368542,69.43 26.38,68.0868542 26.38,66.43 Z" id="Shape" fill="#5F6369"></path>
            <path d="M44.9,27.14 C43.2431458,27.14 41.9,28.4831458 41.9,30.14 C41.9,31.7968542 43.2431458,33.14 44.9,33.14 C46.5568542,33.14 47.9,31.7968542 47.9,30.14 C47.9,28.4831458 46.5568542,27.14 44.9,27.14 L44.9,27.14 Z" id="Shape" fill="#5F6369"></path>
            <path d="M44.9,63.43 C43.2431458,63.43 41.9,64.7731458 41.9,66.43 C41.9,68.0868542 43.2431458,69.43 44.9,69.43 C46.5568542,69.43 47.9,68.0868542 47.9,66.43 C47.9,65.6343505 47.5839295,64.8712888 47.0213203,64.3086797 C46.4587112,63.7460705 45.6956495,63.43 44.9,63.43 L44.9,63.43 Z" id="Shape" fill="#5F6369"></path>
            <path d="M44.9,75.6 C43.2431458,75.6 41.9,76.9431458 41.9,78.6 C41.9,80.2568542 43.2431458,81.6 44.9,81.6 C46.5568542,81.6 47.9,80.2568542 47.9,78.6 C47.9,76.9431458 46.5568542,75.6 44.9,75.6 L44.9,75.6 Z" id="Shape" fill="#5F6369"></path>
            <path d="M44.84,87.73 C43.1831458,87.73 41.84,89.0731458 41.84,90.73 C41.84,92.3868542 43.1831458,93.73 44.84,93.73 C46.4968542,93.73 47.84,92.3868542 47.84,90.73 C47.84,89.0731458 46.4968542,87.73 44.84,87.73 L44.84,87.73 Z" id="Shape" fill="#5F6369"></path>
            <path d="M44.9,99.86 C43.2431458,99.86 41.9,101.203146 41.9,102.86 C41.9,104.516854 43.2431458,105.86 44.9,105.86 C46.5568542,105.86 47.9,104.516854 47.9,102.86 C47.9,101.203146 46.5568542,99.86 44.9,99.86 L44.9,99.86 Z" id="Shape" fill="#5F6369"></path>
            <path d="M66.43,15 C64.7731458,15 63.43,16.3431458 63.43,18 C63.43,19.6568542 64.7731458,21 66.43,21 C68.0868542,21 69.43,19.6568542 69.43,18 C69.43,16.3431458 68.0868542,15 66.43,15 Z" id="Shape" fill="#5F6369"></path>
            <path d="M66.45,51.4 C64.7931458,51.4 63.45,52.7431458 63.45,54.4 C63.45,56.0568542 64.7931458,57.4 66.45,57.4 C68.1068542,57.4 69.45,56.0568542 69.45,54.4 C69.45,52.7431458 68.1068542,51.4 66.45,51.4 L66.45,51.4 Z" id="Shape" fill="#5F6369"></path>
            <path d="M66.43,99.93 C64.7731458,99.93 63.43,101.273146 63.43,102.93 C63.43,104.586854 64.7731458,105.93 66.43,105.93 C68.0868542,105.93 69.43,104.586854 69.43,102.93 C69.43,101.273146 68.0868542,99.93 66.43,99.93 Z" id="Shape" fill="#5F6369"></path>
            <path d="M88,27.12 C86.3431458,27.12 85,28.4631458 85,30.12 C85,31.7768542 86.3431458,33.12 88,33.12 C89.6568542,33.12 91,31.7768542 91,30.12 C91,28.4631458 89.6568542,27.12 88,27.12 L88,27.12 Z" id="Shape" fill="#5F6369"></path>
            <path d="M88,63.52 C86.3431458,63.52 85,64.8631458 85,66.52 C85,68.1768542 86.3431458,69.52 88,69.52 C89.6568542,69.52 91,68.1768542 91,66.52 C91,65.7243505 90.6839295,64.9612888 90.1213203,64.3986797 C89.5587112,63.8360705 88.7956495,63.52 88,63.52 L88,63.52 Z" id="Shape" fill="#5F6369"></path>
            <path d="M88,75.65 C86.3431458,75.65 85,76.9931458 85,78.65 C85,80.3068542 86.3431458,81.65 88,81.65 C89.6568542,81.65 91,80.3068542 91,78.65 C91,76.9931458 89.6568542,75.65 88,75.65 Z" id="Shape" fill="#5F6369"></path>
            <path d="M88,99.93 C86.3431458,99.93 85,101.273146 85,102.93 C85,104.586854 86.3431458,105.93 88,105.93 C89.6568542,105.93 91,104.586854 91,102.93 C91,101.273146 89.6568542,99.93 88,99.93 Z" id="Shape" fill="#5F6369"></path>
            <path d="M88,112.07 C86.3431458,112.07 85,113.413146 85,115.07 C85,116.726854 86.3431458,118.07 88,118.07 C89.6568542,118.07 91,116.726854 91,115.07 C91,113.413146 89.6568542,112.07 88,112.07 Z" id="Shape" fill="#5F6369"></path>
            <path d="M109.52,15 C107.863146,15 106.52,16.3431458 106.52,18 C106.52,19.6568542 107.863146,21 109.52,21 C111.176854,21 112.52,19.6568542 112.52,18 C112.52,16.3431458 111.176854,15 109.52,15 L109.52,15 Z" id="Shape" fill="#5F6369"></path>
            <path d="M109.52,51.4 C107.863146,51.4 106.52,52.7431458 106.52,54.4 C106.52,56.0568542 107.863146,57.4 109.52,57.4 C111.176854,57.4 112.52,56.0568542 112.52,54.4 C112.52,52.7431458 111.176854,51.4 109.52,51.4 L109.52,51.4 Z" id="Shape" fill="#5F6369"></path>
            <path d="M109.52,63.52 C107.863146,63.52 106.52,64.8631458 106.52,66.52 C106.52,68.1768542 107.863146,69.52 109.52,69.52 C111.176854,69.52 112.52,68.1768542 112.52,66.52 C112.52,65.7243505 112.203929,64.9612888 111.64132,64.3986797 C111.078711,63.8360705 110.315649,63.52 109.52,63.52 L109.52,63.52 Z" id="Shape" fill="#5F6369"></path>
            <path d="M109.52,75.65 C107.863146,75.65 106.52,76.9931458 106.52,78.65 C106.52,80.3068542 107.863146,81.65 109.52,81.65 C111.176854,81.65 112.52,80.3068542 112.52,78.65 C112.52,76.9931458 111.176854,75.65 109.52,75.65 L109.52,75.65 Z" id="Shape" fill="#5F6369"></path>
            <path d="M109.52,99.93 C107.863146,99.93 106.52,101.273146 106.52,102.93 C106.52,104.586854 107.863146,105.93 109.52,105.93 C111.176854,105.93 112.52,104.586854 112.52,102.93 C112.52,101.273146 111.176854,99.93 109.52,99.93 L109.52,99.93 Z" id="Shape" fill="#5F6369"></path>
        </g>
    </g>
</svg>